# xmcd
#
# Track frame offsets:
#	150
#	19615
#	38670
#	75642
#	107825
#	140440
#
# Disc length: 2329 seconds
#
# Revision: 3
# Processed by: cddbd v1.5.1PL2 Copyright (c) Steve Scherf et al.
# Submitted via: dBpowerAMP V4.0
#
DISCID=40091706
DTITLE=Robin S - Show Me Love CDS Remixes
DYEAR=1997
DGENRE=Club
TTITLE0=Show Me Love [Lisa Marie Vocal Experience Edit]
TTITLE1=Show Me Love [Stonebridge Edit]
TTITLE2=Show Me Love [Lisa Marie Vocal Experience]
TTITLE3=Show Me Love [Lisa Marie Sequential Dub]
TTITLE4=Show Me Love [Todd Edward's Remix]
TTITLE5=Show Me Love [Stone's Club Mix]
EXTD=
EXTT0=
EXTT1=
EXTT2=
EXTT3=
EXTT4=
EXTT5=
PLAYORDER=
